Exact Audio Copy V0.99 prebeta 1 from 25. May 2007

EAC 抓取日志文件从6. 三月 2011, 13:03

陈明 / 20世纪中华歌坛名人百集珍藏版

使用驱动器  ：PIONEER DVD-RW  DVR-115   Adapter: 0  ID: 0

读取模式     : 保护
使用精确流   : 是
废除音频缓冲 : 是
使用 C2 指针 : 否

组合读/写偏移校正              : 48
读取 Lead-In 和 Lead-Out       : 否
用静音填充抓取中丢失偏移的采样 : 是
去除首尾静音块                 : 否
已用接口                       : 已安装外部 ASPI 接口

所用输出格式 : 内部 WAV 函数
样本格式     : 44.100 Hz;16 Bit;立体声
使用压缩偏移 : 48


被抓轨 CD 的 TOC

     音轨 |   开始   |   长度   | 起始扇区 | 结尾扇区 
    --------------------------------------------------
       1  |  0:00.32 |  5:05.38 |      32  |   22944  
       2  |  5:05.70 |  4:58.72 |   22945  |   45366  
       3  | 10:04.67 |  4:50.58 |   45367  |   67174  
       4  | 14:55.50 |  5:16.00 |   67175  |   90874  
       5  | 20:11.50 |  5:28.17 |   90875  |  115491  
       6  | 25:39.67 |  4:46.58 |  115492  |  136999  
       7  | 30:26.50 |  4:37.15 |  137000  |  157789  
       8  | 35:03.65 |  5:07.02 |  157790  |  180816  
       9  | 40:10.67 |  4:55.58 |  180817  |  202999  
      10  | 45:06.50 |  5:00.17 |  203000  |  225516  
      11  | 50:06.67 |  5:04.55 |  225517  |  248371  
      12  | 55:11.47 |  5:25.08 |  248372  |  272754  
      13  | 60:36.55 |  3:38.17 |  272755  |  289121  
      14  | 64:14.72 |  4:39.15 |  289122  |  310061  


范围状态及错误

已选择范围

     文件名 E:\20世纪中华歌坛名人百集珍藏版-陈明[lwg188原创]\陈明 - 20世纪中华歌坛名人百集珍藏版.wav

     峰值电平 100.0 %
     范围质量 100.0 %
     复制 CRC 9A4971BC
     复制成功

没有错误发生

状态报告结尾
